<svg width="36" height="36" viewBox="0 0 36 36" fill="none" xmlns="http://www.w3.org/2000/svg">
<path fill-rule="evenodd" clip-rule="evenodd" d="M18 32C19.8385 32 21.659 31.6379 23.3576 30.9343C25.0561 30.2307 26.5995 29.1995 27.8995 27.8995C29.1995 26.5995 30.2307 25.0561 30.9343 23.3576C31.6379 21.659 32 19.8385 32 18C32 16.1615 31.6379 14.341 30.9343 12.6424C30.2307 10.9439 29.1995 9.40053 27.8995 8.1005C26.5995 6.80048 25.0561 5.76925 23.3576 5.06569C21.659 4.36212 19.8385 4 18 4C14.287 4 10.726 5.475 8.10051 8.1005C5.475 10.726 4 14.287 4 18C4 21.713 5.475 25.274 8.10051 27.8995C10.726 30.525 14.287 32 18 32ZM17.6391 23.6622L25.4169 14.3289L23.0276 12.3378L16.3387 20.3629L12.8776 16.9002L10.678 19.0998L15.3447 23.7664L16.5487 24.9704L17.6391 23.6622Z" fill="#0FD5AB"/>
</svg>
