<svg width="36" height="36" viewBox="0 0 36 36" fill="none" xmlns="http://www.w3.org/2000/svg">
<path d="M18 25C18.3967 25 18.7294 24.8656 18.9982 24.5968C19.267 24.328 19.4009 23.9957 19.4 23.6C19.3991 23.2043 19.2647 22.872 18.9968 22.6032C18.7289 22.3344 18.3967 22.2 18 22.2C17.6033 22.2 17.2711 22.3344 17.0032 22.6032C16.7353 22.872 16.6009 23.2043 16.6 23.6C16.5991 23.9957 16.7335 24.3285 17.0032 24.5982C17.2729 24.8679 17.6052 25.0019 18 25ZM16.6 19.4H19.4V11H16.6V19.4ZM18 32C16.0633 32 14.2433 31.6322 12.54 30.8968C10.8367 30.1613 9.355 29.1641 8.095 27.905C6.835 26.6459 5.83773 25.1643 5.1032 23.46C4.36867 21.7557 4.00094 19.9357 4 18C3.99907 16.0643 4.3668 14.2443 5.1032 12.54C5.8396 10.8357 6.83687 9.35406 8.095 8.095C9.35313 6.83593 10.8348 5.83867 12.54 5.1032C14.2452 4.36773 16.0652 4 18 4C19.9348 4 21.7548 4.36773 23.46 5.1032C25.1652 5.83867 26.6469 6.83593 27.905 8.095C29.1631 9.35406 30.1609 10.8357 30.8982 12.54C31.6355 14.2443 32.0028 16.0643 32 18C31.9972 19.9357 31.6295 21.7557 30.8968 23.46C30.1641 25.1643 29.1669 26.6459 27.905 27.905C26.6431 29.1641 25.1615 30.1618 23.46 30.8982C21.7585 31.6346 19.9385 32.0018 18 32Z" fill="#FF8500"/>
</svg>
