<svg width="36" height="36" viewBox="0 0 36 36" fill="none" xmlns="http://www.w3.org/2000/svg">
<path d="M8.27403 28.07C6.93689 26.7786 5.87034 25.2338 5.13662 23.5257C4.40289 21.8176 4.01668 19.9806 4.00053 18.1217C3.98438 16.2627 4.3386 14.4192 5.04253 12.6987C5.74646 10.9781 6.78601 9.415 8.1005 8.1005C9.415 6.78601 10.9781 5.74646 12.6987 5.04253C14.4192 4.3386 16.2627 3.98438 18.1217 4.00053C19.9806 4.01668 21.8176 4.40289 23.5257 5.13662C25.2338 5.87034 26.7786 6.93689 28.07 8.27403C30.6202 10.9145 32.0314 14.4509 31.9995 18.1217C31.9676 21.7924 30.4952 25.3038 27.8995 27.8995C25.3038 30.4952 21.7924 31.9676 18.1217 31.9995C14.4509 32.0314 10.9145 30.6202 8.27403 28.07ZM20.132 18.172L24.094 14.21L22.12 12.236L18.172 16.198L14.21 12.236L12.236 14.21L16.198 18.172L12.236 22.134L14.21 24.108L18.172 20.146L22.134 24.108L24.108 22.134L20.146 18.172H20.132Z" fill="#E74141"/>
</svg>
